HIERARCHY
ROOT SimulationBone
{
	OFFSET 0.000000 0.000000 0.000000
	CHANNELS 6 Xposition Yposition Zposition Zrotation Yrotation Xrotation 
	JOINT Hips
	{
		OFFSET 0.000000 0.000000 0.000000
		CHANNELS 6 Xposition Yposition Zposition Zrotation Yrotation Xrotation 
		JOINT RightUpLeg
		{
			OFFSET 0.103459 1.857842 10.548500
			CHANNELS 3 Zrotation Yrotation Xrotation
			JOINT RightLeg
			{
				OFFSET 43.500008 -0.000042 -0.000011
				CHANNELS 3 Zrotation Yrotation Xrotation
				JOINT RightFoot
				{
					OFFSET 42.372200 0.000000 0.000010
					CHANNELS 3 Zrotation Yrotation Xrotation
					JOINT RightToe
					{
						OFFSET 17.300018 0.000008 -0.000006
						CHANNELS 3 Zrotation Yrotation Xrotation
						End Site
						{
							OFFSET 0.000000 0.000000 0.000000
						}
					}
				}
			}
		}
		JOINT LeftUpLeg
		{
			OFFSET 0.103459 1.857820 -10.548510
			CHANNELS 3 Zrotation Yrotation Xrotation
			JOINT LeftLeg
			{
				OFFSET 43.500038 -0.000004 -0.000004
				CHANNELS 3 Zrotation Yrotation Xrotation
				JOINT LeftFoot
				{
					OFFSET 42.372261 -0.000019 0.000015
					CHANNELS 3 Zrotation Yrotation Xrotation
					JOINT LeftToe
					{
						OFFSET 17.300003 -0.000001 0.000006
						CHANNELS 3 Zrotation Yrotation Xrotation
						End Site
						{
							OFFSET 0.000000 0.000000 0.000000
						}
					}
				}
			}
		}
		JOINT Spine
		{
			OFFSET 6.901967 -2.603730 -0.000004
			CHANNELS 3 Zrotation Yrotation Xrotation
			JOINT Spine1
			{
				OFFSET 12.588097 -0.000009 0.000008
				CHANNELS 3 Zrotation Yrotation Xrotation
				JOINT Spine2
				{
					OFFSET 12.343205 0.000003 -0.000002
					CHANNELS 3 Zrotation Yrotation Xrotation
					JOINT Neck
					{
						OFFSET 25.832899 -0.000006 0.000003
						CHANNELS 3 Zrotation Yrotation Xrotation
						JOINT Head
						{
							OFFSET 11.766611 0.000013 0.000001
							CHANNELS 3 Zrotation Yrotation Xrotation
							End Site
							{
								OFFSET 0.000000 0.000000 0.000000
							}
						}
					}
					JOINT RightShoulder
					{
						OFFSET 19.745903 -1.480350 6.000102
						CHANNELS 3 Zrotation Yrotation Xrotation
						JOINT RightArm
						{
							OFFSET 11.284125 -0.000002 -0.000024
							CHANNELS 3 Zrotation Yrotation Xrotation
							JOINT RightForeArm
							{
								OFFSET 33.000050 0.000009 0.000033
								CHANNELS 3 Zrotation Yrotation Xrotation
								JOINT RightHand
								{
									OFFSET 25.200012 0.000010 -0.000003
									CHANNELS 3 Zrotation Yrotation Xrotation
									End Site
									{
										OFFSET 0.000000 0.000000 0.000000
									}
								}
							}
						}
					}
					JOINT LeftShoulder
					{
						OFFSET 19.746105 -1.480362 -6.000072
						CHANNELS 3 Zrotation Yrotation Xrotation
						JOINT LeftArm
						{
							OFFSET 11.284140 -0.000003 -0.000004
							CHANNELS 3 Zrotation Yrotation Xrotation
							JOINT LeftForeArm
							{
								OFFSET 33.000099 0.000013 0.000007
								CHANNELS 3 Zrotation Yrotation Xrotation
								JOINT LeftHand
								{
									OFFSET 25.199776 0.000126 0.000428
									CHANNELS 3 Zrotation Yrotation Xrotation
									End Site
									{
										OFFSET 0.000000 0.000000 0.000000
									}
								}
							}
						}
					}
				}
			}
		}
	}
}
MOTION
Frames: 15
Frame Time: 0.033333
-186.041186 0.000000 -429.460691 0.000000 33.238843 0.000000 1.215398 91.918587 -0.555268 94.117801 1.780768 165.146078 168.110462 -2.540203 -166.984246 -29.337937 -1.590789 -7.922545 92.793762 4.259849 -10.261803 21.454560 0.003107 0.000017 173.648120 -1.950301 -176.462022 -21.124675 1.531379 2.248277 78.403871 -1.544831 0.386721 21.454553 -0.003090 0.000001 6.979277 0.325867 1.287986 3.952643 0.608116 2.586251 3.634858 0.623577 2.582534 -7.833036 -9.253749 -1.288762 -0.907171 2.535897 -4.055886 -143.678125 -71.911722 -38.715479 23.326918 57.332512 68.082813 -33.421915 -14.002332 1.262343 6.210274 -2.004849 8.190426 -165.763937 79.255193 16.023812 -27.891494 -56.144445 -29.810405 -37.842434 13.545746 -1.308146 6.955732 0.236597 -34.148364 
-185.726082 0.000000 -430.355410 0.000000 29.917289 0.000000 1.396969 92.126152 -0.127995 94.207757 2.199157 164.268044 172.781082 -6.285601 -170.892125 -19.245897 -4.565504 -6.819281 77.845749 1.699841 -12.596721 21.454560 0.003112 0.000015 174.929232 -2.144302 -178.130077 -19.155721 2.416227 1.083461 75.859783 -1.463628 -2.135832 21.454553 -0.003093 0.000000 6.935832 0.500889 0.855110 3.866276 0.973321 1.726339 3.548294 0.983596 1.720430 -6.650141 -6.630962 0.058584 -3.022306 0.044945 -1.490562 -143.642580 -72.273811 -38.737350 24.331094 57.897396 68.387590 -33.015656 -13.936881 1.249313 6.691710 -0.589189 8.188549 -163.242259 78.733599 18.592694 -26.545699 -55.255865 -29.410187 -38.272699 13.961427 -1.345905 6.895104 0.285567 -31.917665 
-185.383974 0.000000 -431.202321 0.000000 26.738312 0.000000 1.599840 92.245323 0.087371 95.040806 2.234544 165.806668 176.060366 -7.986601 179.532888 -16.417152 -6.167631 -2.573685 76.070569 0.846686 -4.169511 21.454555 0.003115 0.000017 176.242213 -2.027205 -178.844433 -18.795569 2.267632 0.727884 75.484963 -1.219918 -2.121374 21.454555 -0.003093 0.000000 7.009800 0.474123 0.011179 4.007084 0.947630 0.038583 3.688937 0.947708 0.032858 -5.593603 -4.277559 1.263270 -3.647665 -2.172270 0.826913 -146.653369 -71.341517 -35.683278 21.548299 56.390896 66.238375 -31.629360 -13.494739 1.191651 7.139669 -0.019992 6.563916 -159.919918 76.573087 22.004993 -26.293216 -54.140973 -27.522925 -36.781781 13.714435 -1.293413 6.251805 2.887255 -27.933583 
-184.997393 0.000000 -432.002337 0.000000 23.699548 0.000000 2.004647 92.714546 0.154288 94.666356 1.876479 168.325598 178.859910 -7.503006 178.649977 -11.282896 -6.417169 -2.983011 73.130651 1.944070 -1.239897 21.454560 0.003106 0.000017 177.863686 -2.234802 -178.837807 -15.760783 1.066035 0.795384 74.185417 -1.019734 -1.280956 21.454550 -0.003091 0.000000 6.573482 0.414798 -0.593188 3.129846 0.845260 -1.175165 2.811799 0.838012 -1.180250 -3.376128 -2.268688 1.955865 -3.589905 -3.517386 2.337357 -149.373109 -71.708763 -32.877262 19.867612 55.743807 64.265796 -29.010047 -13.090759 1.114428 7.921576 -1.113193 5.514023 -154.693061 72.982695 27.422699 -23.592498 -54.350821 -26.552024 -33.264452 14.472963 -1.262554 5.755641 6.318729 -23.112052 
-184.577724 0.000000 -432.743323 0.000000 20.801927 0.000000 2.282355 93.028214 0.348177 93.497894 2.384439 169.088477 -179.841913 -7.486099 -177.827226 -8.047557 -5.920551 -6.632054 72.347973 4.313906 -1.968991 21.454560 0.003101 0.000017 179.064228 -3.152603 -178.058797 -12.007508 0.257707 -0.328985 72.392799 -0.200639 -1.196681 21.454553 -0.003093 0.000000 5.990139 0.614919 -0.600374 1.961108 1.239638 -1.190657 1.643006 1.232288 -1.198122 -2.291261 -0.926425 2.414381 -3.469098 -4.883822 3.402692 -148.787898 -73.147146 -33.431724 20.012173 56.804723 63.773490 -28.001704 -13.270101 1.107594 9.303910 -3.218907 5.438659 -149.266394 72.504118 33.003918 -16.483516 -57.728308 -23.500724 -32.804985 14.936165 -1.282593 7.099903 10.851280 -18.534786 
-184.155207 0.000000 -433.411713 0.000000 18.042036 0.000000 2.230787 93.158607 0.543435 92.403626 2.793225 169.340283 179.985429 -7.634705 -175.319153 -7.710387 -5.634205 -9.618115 72.921135 6.122158 -2.993518 21.454557 0.003108 0.000018 179.548297 -3.363800 -178.206083 -9.243771 0.811016 -1.560842 71.005349 0.500434 -1.657615 21.454545 -0.003090 0.000001 5.572870 0.793210 -0.508006 1.125979 1.591054 -1.008873 0.807797 1.584795 -1.018464 -3.980361 -0.154920 2.910312 -1.718836 -5.555217 4.102358 -146.612920 -73.385759 -35.651788 18.296854 57.081786 62.448064 -28.951331 -13.314149 1.127719 10.901805 -6.307884 5.255557 -146.944731 72.922897 35.370695 -6.674077 -59.881450 -23.132640 -35.673381 14.961003 -1.348182 9.774679 14.795102 -11.855245 
-183.722025 0.000000 -434.014132 0.000000 15.448002 0.000000 2.141008 93.161789 0.642956 92.469072 2.632538 170.880509 -179.530894 -7.639299 -176.344788 -7.681215 -6.138948 -9.619784 73.413687 6.251076 -2.628110 21.454557 0.003113 0.000018 -179.769773 -2.517701 -179.863661 -8.207534 2.101518 -1.347040 70.849832 0.249091 -1.858190 21.454551 -0.003093 0.000000 5.516306 0.756904 -0.638402 1.011405 1.518997 -1.270763 0.693283 1.511159 -1.279913 -6.285077 0.365163 3.258573 -0.392805 -5.061040 4.376447 -146.224788 -73.014333 -36.062695 15.104041 56.630666 59.514245 -29.942965 -13.802000 1.177873 10.339189 -8.259166 4.984140 -146.978964 72.794175 35.340092 1.275551 -59.868814 -25.583184 -37.471121 14.987750 -1.392883 13.397152 16.764319 -1.725244 
-183.275405 0.000000 -434.539729 0.000000 13.052722 0.000000 2.132149 93.123718 0.742762 93.352502 2.583385 172.813665 -178.731639 -7.545699 -178.004756 -8.654073 -6.293394 -8.880241 74.233795 5.874766 -2.143594 21.454557 0.003108 0.000017 -178.567509 -2.203201 176.941665 -7.818014 2.642772 0.163858 71.026946 -0.684385 -1.375368 21.454545 -0.003091 0.000000 5.729667 0.675913 -0.795333 1.437173 1.361220 -1.582733 1.119125 1.351501 -1.590924 -8.060121 1.110375 3.246150 -0.306359 -4.684712 4.457854 -147.115499 -73.506113 -35.132823 12.982703 56.964287 55.625030 -31.120999 -14.369400 1.237649 8.668062 -10.191990 3.157234 -146.873560 72.591701 35.455382 5.030214 -59.343620 -29.040523 -35.324506 15.499460 -1.374940 15.692609 16.052881 9.228240 
-182.838065 0.000000 -434.999407 0.000000 10.891727 0.000000 2.143960 93.095177 0.828933 94.155747 2.548277 174.555042 -177.969950 -7.045104 -178.651234 -9.469145 -5.562357 -8.787103 74.905196 5.724788 -2.398391 21.454555 0.003110 0.000018 -177.550931 -2.608201 175.479963 -7.808318 1.678270 0.761715 71.320774 -0.834516 -0.592279 21.454553 -0.003090 0.000000 5.937474 0.586851 -0.908426 1.852845 1.187702 -1.807771 1.534838 1.176628 -1.814908 -8.992536 2.117316 3.027890 -0.310022 -4.744837 4.510867 -148.074704 -74.522685 -34.116696 11.517370 58.047790 52.632710 -32.150551 -14.568633 1.271677 8.237394 -13.268318 -0.781458 -146.616281 72.062717 35.738101 5.259061 -58.721670 -30.685479 -30.152830 14.882840 -1.225129 16.575677 13.653124 13.773928 
-182.411009 0.000000 -435.393856 0.000000 8.984899 0.000000 2.084880 93.054947 0.967538 94.308352 2.616754 175.809470 -177.890146 -6.942095 -178.957677 -10.314104 -5.227726 -8.998063 75.606916 5.796540 -2.657510 21.454557 0.003114 0.000018 -177.341914 -2.801300 175.822060 -8.019709 1.357681 0.159221 71.596160 -0.398822 -0.603512 21.454550 -0.003090 0.000000 5.926553 0.566482 -0.945659 1.830901 1.147362 -1.882658 1.512917 1.135835 -1.889550 -8.663437 2.429854 2.977874 -0.015726 -4.816015 4.535125 -148.006006 -75.016289 -34.170538 9.942646 58.960836 51.566169 -32.850095 -14.995132 1.314003 8.302968 -14.840915 -4.863167 -146.800436 72.155307 35.545807 6.256481 -58.369219 -31.742283 -26.060689 13.553449 -1.066695 18.529227 10.075752 11.988239 
-181.996920 0.000000 -435.729287 0.000000 7.360698 0.000000 2.020529 93.032173 1.066548 94.234761 2.573934 176.823051 -177.810479 -6.990404 -179.777901 -10.670565 -5.326580 -8.871801 76.087501 5.740636 -2.552899 21.454557 0.003116 0.000018 -177.392102 -2.485992 176.332658 -8.214792 1.811021 -0.551483 71.828448 -0.035645 -1.031662 21.454548 -0.003090 0.000001 5.818546 0.557132 -0.934318 1.615151 1.126747 -1.861190 1.297197 1.115351 -1.867958 -7.916901 1.607559 3.167894 0.138133 -4.182125 4.376689 -146.899925 -74.969925 -35.302430 8.693687 59.671818 50.130061 -34.101437 -15.351642 1.364472 7.465953 -14.392399 -4.613941 -147.177176 72.795910 35.136904 9.674830 -58.325840 -34.251247 -25.054981 13.065070 -1.019360 20.799907 5.765572 5.538684 
-181.605518 0.000000 -436.015708 0.000000 6.037221 0.000000 2.010827 93.030403 1.148973 94.282859 2.463685 177.790099 -177.219531 -6.919601 -179.470310 -10.079999 -5.532237 -9.315678 76.118866 6.068078 -2.516206 21.454565 0.003105 0.000017 -177.144481 -2.122894 175.999563 -8.112335 2.322163 -0.616642 71.953331 -0.076212 -1.274533 21.454557 -0.003093 0.000000 5.759709 0.503886 -0.878071 1.498863 1.018626 -1.749915 1.180876 1.007904 -1.756033 -7.573838 1.174401 3.273184 -0.130336 -3.842979 4.316657 -146.050509 -75.123126 -36.164701 7.559809 60.460370 48.699655 -34.941711 -15.709194 1.406643 6.163103 -12.436496 -1.290930 -146.537091 72.852888 35.790980 13.479582 -58.245688 -37.972136 -25.659844 13.369938 -1.048450 22.061159 2.497128 -3.685005 
-181.244097 0.000000 -436.251049 0.000000 5.014967 0.000000 2.044943 93.041992 1.202111 94.338009 2.337512 178.866526 -176.670930 -6.589798 -179.234587 -9.474858 -5.174460 -9.508177 76.032225 6.160201 -2.654435 21.454565 0.003106 0.000016 -176.747851 -2.143005 174.723015 -7.836448 2.188614 0.157403 72.073618 -0.518248 -0.939745 21.454550 -0.003093 0.000000 5.716047 0.445231 -0.872948 1.412471 0.900604 -1.740723 1.094497 0.889939 -1.746128 -7.721333 1.076572 3.299146 -0.178655 -3.744641 4.301211 -146.289333 -75.046697 -35.923530 6.502617 60.773999 47.706932 -35.147768 -15.681419 1.409614 5.655606 -10.759592 0.242431 -145.934860 72.730409 36.412801 16.691961 -58.238810 -42.595054 -26.001839 13.499869 -1.062300 19.768075 1.819266 -12.245673 
-180.917668 0.000000 -436.435566 0.000000 4.283086 0.000000 2.052469 93.050598 1.190781 94.250815 2.217884 179.884701 -176.518179 -6.278198 -179.031361 -9.246325 -4.846937 -9.509135 76.079380 6.138699 -2.718482 21.454560 0.003110 0.000017 -176.516991 -2.200607 173.630963 -7.617614 1.939493 0.970788 72.217359 -0.962424 -0.528530 21.454550 -0.003092 0.000000 5.653801 0.401992 -0.902279 1.288386 0.813497 -1.800323 0.970442 0.802474 -1.805200 -7.829548 0.985333 3.225383 -0.212295 -3.726640 4.204081 -146.922178 -74.820877 -35.284826 5.411499 61.043737 47.259513 -34.538866 -15.588821 1.389647 6.012399 -9.568403 -0.253011 -145.351084 72.561519 37.017494 18.819726 -58.452165 -46.638830 -26.202499 13.389957 -1.058535 15.703764 2.167081 -18.970560 
-180.628669 0.000000 -436.574692 0.000000 3.836471 0.000000 2.046303 93.040627 1.120308 94.153855 2.137286 -179.435570 -176.562781 -6.218200 179.180970 -9.550354 -4.717146 -8.309332 76.372928 5.394484 -2.339481 21.454558 0.003110 0.000018 -176.388064 -1.984604 172.586094 -7.489133 2.231163 1.702066 72.399520 -1.444588 -0.391016 21.454551 -0.003091 0.000000 5.616885 0.381408 -0.926025 1.214752 0.771988 -1.848275 0.896779 0.760676 -1.852902 -7.967367 0.997391 3.132464 -0.302688 -3.877374 4.149999 -147.442296 -74.415225 -34.767114 5.288454 61.403640 46.517413 -33.917558 -15.441214 1.366138 6.209764 -8.662340 0.907158 -145.048848 72.443718 37.331820 20.051439 -58.960706 -49.260615 -26.893995 13.401529 -1.070811 12.744190 1.809739 -23.839355 
